<?xml version="1.0" encoding="UTF-8"?>
<svg id="_레이어_1" data-name="레이어 1" xmlns="http://www.w3.org/2000/svg" viewBox="0 0 810.27 552.87">
  <defs>
    <style>
      .cls-1 {
        stroke-width: 0px;
      }
    </style>
  </defs>
  <path class="cls-1" d="M.04,60.91c3.59,16.94,8.73,33.54,15.35,49.53s14.59,31.23,23.96,45.69c2.52,3.88,5,7.96,8.02,11.47,2.73,3.17,6.38,5.75,10.75,4.92.7-.13,1.03-.82,1.1-1.45,2.71-23.86,6.36-47.6,10.92-71.17,1.29-6.67,2.66-13.32,4.1-19.96l-2.2.9c27.21,16.95,54.41,33.9,81.62,50.85,6.61,4.12,13.12,8.48,19.89,12.32,5.7,3.23,12.71,6.03,19.1,3.05,5.75-2.68,8.5-9.08,10.88-14.55,2.95-6.77,5.47-13.72,7.51-20.82,4.55-15.84,6.74-32.35,6.51-48.82-.03-1.93-3.03-1.93-3,0,.2,14.39-1.46,28.76-4.98,42.71-1.72,6.81-3.86,13.52-6.42,20.06-1.27,3.24-2.62,6.47-4.14,9.6-1.27,2.61-2.73,5.22-4.88,7.22-5.1,4.75-12.05,2.7-17.53-.19-3.3-1.74-6.43-3.81-9.59-5.78s-6.48-4.04-9.73-6.06c-13.11-8.17-26.22-16.34-39.33-24.5-14.8-9.22-29.6-18.44-44.4-27.67-.79-.49-2-.04-2.2.9-5.13,23.68-9.33,47.55-12.58,71.56-.92,6.78-1.77,13.58-2.54,20.38l1.1-1.45c-3.58.68-6.58-2.51-8.57-5.05-2.47-3.15-4.63-6.6-6.8-9.96-4.51-6.96-8.7-14.11-12.58-21.44-7.76-14.67-14.2-30.03-19.24-45.84-2.85-8.95-5.25-18.03-7.19-27.22-.4-1.89-3.29-1.09-2.89.8H.04Z"/>
  <path class="cls-1" d="M286.14,99.31c13.39,7.53,34.05-.96,34.22-17.52.08-7.71-4.36-15.47-11.03-19.34-7.22-4.19-15.92-2.6-22.01,2.83-6.48,5.76-9.47,14.72-7.91,23.2s7.59,16.37,14.83,21.41c8.56,5.96,19.11,8.25,29.36,8.96,11.2.78,22.57.04,33.71-1.27,23.14-2.73,45.75-8.57,68.17-14.77,2.79-.77,5.58-1.55,8.36-2.32,1.86-.52,1.07-3.41-.8-2.89-20.82,5.8-41.71,11.61-63.06,15.17-10.69,1.78-21.48,2.97-32.31,3.28-9.97.29-20.17,0-29.77-2.95-8.34-2.57-16.1-7.41-21.09-14.71-4.59-6.73-6.39-15.11-3.19-22.81,2.87-6.91,9.47-12.82,17.29-12.58,6.99.22,12.89,5.78,15.22,12.1,2.49,6.74.91,13.9-4.49,18.72-5.1,4.56-12.69,6.4-19.32,4.76-1.65-.41-3.2-1.03-4.69-1.86-1.68-.95-3.2,1.64-1.51,2.59h0Z"/>
  <path class="cls-1" d="M518.97,2.86l8.63,6.11-.3-2.36c-8.47,8.28-16.94,16.56-25.41,24.84-1.38,1.35.74,3.47,2.12,2.12,8.47-8.28,16.94-16.56,25.41-24.84.74-.72.47-1.81-.3-2.36-2.88-2.04-5.76-4.07-8.63-6.11-1.58-1.12-3.08,1.48-1.51,2.59h0Z"/>
  <path class="cls-1" d="M595.52,24.54c5.54,18.21,11.08,36.43,16.63,54.64,1.57,5.17,3.15,10.34,4.72,15.51.4,1.3,2.65,1.55,2.89,0,2.79-17.8,12.12-34.25,25.76-45.98,3.87-3.33,8.08-6.22,12.55-8.68,1.69-.93.18-3.52-1.51-2.59-16.29,8.95-28.97,23.84-35.61,41.16-1.89,4.94-3.26,10.07-4.08,15.3h2.89c-5.54-18.21-11.08-36.43-16.63-54.64l-4.72-15.51c-.56-1.84-3.46-1.06-2.89.8h0Z"/>
  <path class="cls-1" d="M338.51,319.95c18.91,3.34,38.21,4.35,57.37,2.92,9.56-.71,19.08-2.01,28.48-3.9,4.79-.96,9.55-2.08,14.26-3.35,3.77-1.02,7.96-2.16,9.67-6.07,1.49-3.43,1.07-7.68.29-11.25s-2.21-6.79-4.12-9.76c-3.94-6.13-9.81-11.01-16.41-14.05-16.47-7.59-35.48-3.12-51.37,3.76-14.66,6.34-29.92,16.21-33.82,32.78-1.81,7.67-.9,16.08,3.85,22.54s12.23,10.51,18.64,15.37c6.95,5.27,13.11,11.48,19.61,17.27s13.31,11.05,21.11,14.88c15.63,7.68,33.15,10.08,50.31,11.61,15.09,1.35,30.36,2.56,45.5,1.09,13.9-1.35,28.02-5.07,38.95-14.16,2.64-2.19,5.01-4.68,7.12-7.39,1.17-1.51-.94-3.65-2.12-2.12-8.34,10.74-20.68,16.54-33.78,19.18-13.75,2.77-28,2.44-41.92,1.5-16.19-1.1-32.7-2.31-48.34-6.88-7.93-2.32-15.57-5.59-22.46-10.16s-12.95-10.29-19.02-15.88-12.26-10.84-19.04-15.53c-6.25-4.31-12.79-9.01-15.18-16.59-2.25-7.13-.89-15.07,2.54-21.6,3.66-6.95,9.72-12.33,16.3-16.47,6.98-4.4,14.7-7.81,22.54-10.37,8.4-2.75,17.26-4.37,26.12-3.57,13.91,1.25,28.21,10.2,31.89,24.34.83,3.18,1.56,7.63-.08,10.66-.9,1.66-2.62,2.5-4.34,3.07-2.02.68-4.11,1.17-6.17,1.7-8.95,2.28-18.05,4.02-27.21,5.18-18.21,2.3-36.69,2.42-54.93.33-4.48-.51-8.95-1.18-13.39-1.96-1.89-.33-2.7,2.56-.8,2.89h0Z"/>
  <path class="cls-1" d="M255.88,552.8c16.19-4.81,32-10.78,47.83-16.66,15.72-5.85,31.5-11.65,47.68-16.12,15.78-4.36,32-7.44,48.42-7.64,8.26-.1,16.53.52,24.66,2,8.76,1.59,17.32,4.07,26,6.02,15.2,3.4,32.11,5.11,46.41-2.45,1.66-.87,3.24-1.88,4.75-2.99s.04-3.74-1.51-2.59c-12.9,9.5-29.9,8.98-44.89,5.97-8.72-1.75-17.28-4.25-25.98-6.08-8.19-1.72-16.52-2.7-24.89-2.87-16.2-.33-32.34,2.23-48.01,6.2s-32.02,9.73-47.71,15.53c-15.8,5.83-31.53,11.9-47.6,16.96-1.97.62-3.95,1.23-5.94,1.82-1.85.55-1.06,3.44.8,2.89h0Z"/>
  <path class="cls-1" d="M671.85,460.14c17.66,5.46,36.32,5.61,54.41,2.37s36.76-10.08,54.12-17.79c9.84-4.37,19.5-9.11,29.12-13.94,1.73-.87.21-3.45-1.51-2.59-16.83,8.45-33.85,16.67-51.62,22.99-17.23,6.13-35.34,10.54-53.72,10.52-10.18-.01-20.28-1.46-30.01-4.46-1.85-.57-2.64,2.32-.8,2.89h0Z"/>
</svg>